<svg xmlns="http://www.w3.org/2000/svg" xmlns:xlink="http://www.w3.org/1999/xlink" width="330" zoomAndPan="magnify" viewBox="0 0 247.5 177.749994" height="237" preserveAspectRatio="xMidYMid meet" version="1.0"><defs><clipPath id="06c150f085"><path d="M 34.875 0.0546875 L 212.625 0.0546875 L 212.625 177.445312 L 34.875 177.445312 Z M 34.875 0.0546875 " clip-rule="nonzero"/></clipPath></defs><g clip-path="url(#06c150f085)"><path fill="#1db954" d="M 123.75 0.0546875 C 74.867188 0.0546875 34.875 40.046875 34.875 88.929688 C 34.875 137.8125 74.867188 177.804688 123.75 177.804688 C 172.632812 177.804688 212.625 137.8125 212.625 88.929688 C 212.625 40.046875 172.632812 0.0546875 123.75 0.0546875 Z M 159.804688 128.085938 C 158.136719 128.085938 157.300781 127.253906 155.628906 126.417969 C 143.089844 118.890625 127.207031 114.710938 110.488281 114.710938 C 101.292969 114.710938 91.265625 116.382812 82.902344 118.054688 C 81.230469 118.054688 79.5625 118.890625 78.726562 118.890625 C 75.382812 118.890625 72.878906 116.382812 72.878906 113.042969 C 72.878906 109.699219 74.546875 107.191406 77.890625 107.191406 C 88.761719 104.6875 99.628906 103.015625 111.335938 103.015625 C 130.558594 103.015625 148.121094 108.027344 163.167969 116.390625 C 164.835938 118.0625 166.507812 118.898438 166.507812 122.238281 C 164.820312 126.417969 162.3125 128.085938 159.804688 128.085938 Z M 168.996094 104.6875 C 167.324219 104.6875 165.65625 103.851562 163.984375 103.015625 C 149.773438 93.816406 129.703125 88.804688 107.976562 88.804688 C 97.105469 88.804688 87.070312 90.476562 79.550781 92.148438 C 77.882812 92.980469 77.046875 92.980469 75.375 92.980469 C 71.199219 92.980469 68.683594 89.640625 68.683594 86.289062 C 68.683594 82.113281 70.355469 80.441406 74.53125 78.761719 C 84.566406 76.253906 94.597656 73.75 108.808594 73.75 C 132.21875 73.75 153.949219 79.597656 172.347656 90.46875 C 174.851562 92.136719 176.523438 94.644531 176.523438 97.160156 C 175.6875 101.335938 173.183594 104.6875 168.996094 104.6875 Z M 179.867188 77.925781 C 178.195312 77.925781 177.359375 77.089844 174.851562 76.253906 C 158.136719 67.058594 133.890625 61.210938 110.480469 61.210938 C 98.777344 61.210938 86.234375 62.878906 75.367188 65.386719 C 73.695312 65.386719 72.859375 66.222656 70.355469 66.222656 C 65.339844 67.066406 61.992188 62.878906 61.992188 57.867188 C 61.992188 52.855469 64.496094 50.339844 67.839844 49.503906 C 81.222656 46.164062 95.433594 44.492188 110.480469 44.492188 C 136.398438 44.492188 163.148438 50.339844 184.050781 61.210938 C 186.558594 62.878906 189.0625 65.386719 189.0625 69.574219 C 188.230469 74.585938 184.878906 77.925781 179.867188 77.925781 Z M 179.867188 77.925781 " fill-opacity="1" fill-rule="nonzero"/></g></svg>