<svg xmlns="http://www.w3.org/2000/svg" xmlns:xlink="http://www.w3.org/1999/xlink" width="150" zoomAndPan="magnify" viewBox="0 0 112.5 44.999999" height="60" preserveAspectRatio="xMidYMid meet" version="1.0"><defs><g/><clipPath id="9c7875e8b4"><path d="M 43 0.0976562 L 45 0.0976562 L 45 1 L 43 1 Z M 43 0.0976562 " clip-rule="nonzero"/></clipPath><clipPath id="761190b95e"><path d="M 46.792969 1.800781 L 47.921875 1.800781 L 47.921875 2.949219 L 46.792969 2.949219 Z M 46.792969 1.800781 " clip-rule="nonzero"/></clipPath><clipPath id="f562e4828c"><path d="M 44 3 L 47.925781 3 L 47.925781 7 L 44 7 Z M 44 3 " clip-rule="nonzero"/></clipPath><clipPath id="0f22b731cd"><path d="M 16.425781 5.910156 L 41.761719 5.910156 L 41.761719 44.898438 L 16.425781 44.898438 Z M 16.425781 5.910156 " clip-rule="nonzero"/></clipPath></defs><g clip-path="url(#9c7875e8b4)"><path fill="#ffffff" d="M 44.246094 0.1875 C 43.761719 0.101562 43.765625 0.503906 43.550781 0.6875 C 43.863281 0.601562 44.160156 0.503906 44.246094 0.1875 " fill-opacity="1" fill-rule="nonzero"/></g><path fill="#ffffff" d="M 43.152344 1.589844 C 43.273438 1.601562 43.386719 1.617188 43.351562 1.789062 C 42.878906 1.394531 42.714844 1.9375 42.457031 2.289062 C 43.035156 2.335938 43.199219 1.96875 43.550781 1.789062 C 43.425781 1.644531 43.308594 1.144531 43.152344 1.589844 " fill-opacity="1" fill-rule="nonzero"/><path fill="#ffffff" d="M 43.550781 2.6875 C 43.519531 2.925781 43.207031 2.875 43.253906 3.191406 C 43.589844 3.316406 43.777344 2.796875 43.550781 2.6875 " fill-opacity="1" fill-rule="nonzero"/><path fill="#ffffff" d="M 42.359375 2.890625 C 42.132812 2.863281 41.984375 2.914062 41.960938 3.089844 C 42.101562 3.113281 42.128906 3.253906 42.257812 3.289062 C 42.289062 3.15625 42.402344 3.097656 42.359375 2.890625 " fill-opacity="1" fill-rule="nonzero"/><path fill="#ffffff" d="M 41.066406 5.488281 C 41.035156 5.625 40.925781 5.679688 40.96875 5.890625 C 41.296875 5.917969 41.464844 6.234375 41.664062 5.890625 C 41.410156 5.878906 41.277344 5.746094 41.265625 5.488281 C 41.394531 5.484375 41.402344 5.363281 41.5625 5.390625 C 41.566406 5.488281 41.484375 5.507812 41.464844 5.589844 C 41.726562 5.621094 41.789062 5.453125 41.761719 5.191406 C 41.644531 4.941406 41.386719 5.394531 41.265625 5.089844 C 41.296875 4.855469 41.574219 4.867188 41.664062 4.6875 C 41.492188 4.5625 41.464844 4.289062 41.265625 4.191406 C 41.832031 4.167969 41.632812 4.398438 41.761719 4.6875 C 42.125 4.722656 42.15625 4.421875 42.257812 4.191406 C 42.023438 4.058594 41.601562 4.117188 41.664062 3.6875 C 41.734375 3.484375 41.960938 3.28125 42.160156 3.488281 C 41.828125 2.867188 40.328125 4.707031 40.96875 5.089844 C 40.765625 5.152344 40.277344 4.929688 40.371094 5.289062 C 40.402344 5.417969 41 5.152344 41.066406 5.488281 " fill-opacity="1" fill-rule="nonzero"/><path fill="#ffffff" d="M 42.558594 4.089844 C 42.667969 3.902344 42.941406 3.878906 43.054688 3.6875 C 42.742188 3.804688 42.8125 3.53125 42.65625 3.488281 C 42.726562 3.761719 42.1875 3.417969 42.257812 3.6875 C 42.648438 3.527344 42.292969 4.121094 42.558594 4.089844 " fill-opacity="1" fill-rule="nonzero"/><path fill="#ffffff" d="M 43.648438 7.789062 C 43.648438 7.734375 43.730469 7.675781 43.75 7.789062 C 43.628906 7.8125 43.6875 7.902344 43.75 7.988281 C 44.007812 8.019531 44.175781 7.953125 44.148438 7.691406 C 44.03125 7.675781 43.863281 7.707031 43.847656 7.589844 C 44.054688 7.625 44.578125 7.394531 44.34375 7.089844 C 44.152344 7.300781 43.292969 7.359375 43.648438 7.789062 " fill-opacity="1" fill-rule="nonzero"/><path fill="#ffffff" d="M 33.421875 38.894531 C 33.597656 38.707031 33.574219 38.316406 33.917969 38.292969 C 33.851562 37.925781 33.578125 37.769531 33.222656 37.695312 C 33.519531 38.074219 32.785156 38.753906 33.421875 38.894531 " fill-opacity="1" fill-rule="nonzero"/><path fill="#ffffff" d="M 30.042969 43.59375 C 30.121094 43.25 29.953125 43.15625 29.746094 43.09375 C 29.585938 43.253906 29.792969 43.554688 30.042969 43.59375 " fill-opacity="1" fill-rule="nonzero"/><g clip-path="url(#761190b95e)"><path fill="#ffffff" d="M 47.921875 2.089844 C 47.726562 2.121094 47.722656 1.953125 47.621094 1.890625 C 47.332031 2.101562 47.246094 2.992188 46.828125 2.488281 C 46.847656 2.769531 47 2.914062 47.324219 2.890625 C 47.332031 2.730469 47.3125 2.542969 47.523438 2.589844 C 47.5625 2.761719 47.375 2.847656 47.523438 2.890625 C 47.542969 2.777344 47.632812 2.734375 47.722656 2.6875 C 47.792969 2.417969 47.523438 2.488281 47.523438 2.289062 C 47.75 2.316406 47.898438 2.265625 47.921875 2.089844 " fill-opacity="1" fill-rule="nonzero"/></g><g clip-path="url(#f562e4828c)"><path fill="#ffffff" d="M 46.730469 3.988281 C 46.730469 3.921875 46.730469 3.855469 46.730469 3.789062 C 46.542969 3.804688 46.667969 4.128906 46.53125 4.191406 C 46.238281 4.105469 46.589844 3.867188 46.53125 3.6875 C 46.738281 3.636719 47.132812 4.042969 46.730469 3.988281 Z M 45.933594 3.488281 C 45.777344 4.101562 45.441406 4.527344 44.941406 4.789062 C 44.921875 5.296875 45.277344 4.8125 45.339844 5.191406 C 45.027344 5.242188 44.933594 4.953125 44.839844 5.289062 C 45.207031 5.796875 44.167969 5.742188 44.246094 6.289062 C 44.546875 6.207031 44.75 6.277344 44.839844 6.191406 C 44.707031 5.632812 45.957031 5.832031 45.4375 5.089844 C 46.132812 5.171875 45.933594 4.472656 46.429688 4.789062 C 46.464844 4.425781 46.664062 4.226562 47.027344 4.191406 C 47.078125 3.773438 46.972656 3.511719 46.828125 3.289062 C 46.351562 3.179688 46.410156 3.601562 45.933594 3.488281 " fill-opacity="1" fill-rule="nonzero"/></g><g clip-path="url(#0f22b731cd)"><path fill="#ffffff" d="M 39.976562 13.890625 C 39.859375 13.808594 39.707031 13.757812 39.480469 13.789062 C 39.5625 13.542969 39.609375 13.253906 39.578125 12.890625 C 40.035156 12.929688 40.136719 13.519531 39.976562 13.890625 Z M 38.683594 12.789062 C 38.1875 12.925781 37.972656 13.34375 37.59375 13.589844 C 37.578125 13.769531 37.714844 13.800781 37.691406 13.992188 C 37.429688 14.109375 37.382812 14.078125 37.492188 14.390625 C 36.941406 14.421875 37.488281 13.929688 37.09375 13.890625 C 37.394531 13.859375 37.128906 13.257812 37.59375 13.390625 C 37.515625 12.914062 37.746094 12.746094 37.691406 12.289062 C 38.078125 12.320312 38.476562 12.03125 38.785156 12.289062 C 38.824219 12.53125 38.601562 12.507812 38.683594 12.789062 Z M 37.789062 14.992188 C 37.296875 14.980469 37.300781 15.089844 36.898438 14.992188 C 37.195312 15.28125 36.402344 15.960938 36.203125 16.390625 C 35.941406 16.261719 35.898438 16.0625 36.003906 15.789062 C 36.128906 15.652344 36.472656 15.730469 36.597656 15.589844 C 36.515625 15.476562 36.46875 15.324219 36.5 15.089844 C 36.867188 15.078125 36.75 14.945312 36.699219 14.691406 C 37.503906 14.988281 38.054688 13.511719 38.386719 14.589844 C 37.992188 14.527344 37.777344 14.644531 37.789062 14.992188 Z M 37.59375 15.492188 C 37.601562 15.300781 37.921875 15.421875 37.890625 15.191406 C 38.023438 15.222656 37.972656 15.441406 37.988281 15.589844 C 37.78125 15.632812 37.726562 15.523438 37.59375 15.492188 Z M 35.109375 18.691406 C 34.660156 18.878906 34.9375 18.332031 34.710938 18.292969 C 34.898438 17.984375 35.183594 18.40625 35.109375 18.691406 Z M 29.945312 42.59375 C 29.707031 42.503906 29.539062 42.335938 29.449219 42.09375 C 29.730469 42.175781 29.707031 41.953125 29.945312 41.996094 C 30.082031 42.121094 30.082031 42.46875 29.945312 42.59375 Z M 28.453125 42.796875 C 28.535156 42.847656 28.617188 42.898438 28.753906 42.894531 C 28.851562 42.890625 28.832031 42.773438 28.851562 42.695312 C 29.121094 42.625 28.78125 43.167969 29.050781 43.09375 C 28.972656 43.265625 28.386719 43.105469 28.453125 42.796875 Z M 27.261719 28.492188 C 27.183594 28.441406 27.101562 28.390625 26.964844 28.394531 C 26.933594 28.128906 27.171875 28.136719 27.363281 28.09375 C 27.40625 28.300781 27.292969 28.359375 27.261719 28.492188 Z M 26.667969 28.191406 C 26.53125 28.066406 26.53125 27.722656 26.667969 27.59375 C 26.835938 27.722656 27.058594 27.800781 27.066406 28.09375 C 26.976562 28.171875 26.839844 28.199219 26.667969 28.191406 Z M 18.820312 19.191406 C 18.644531 19.167969 18.324219 19.292969 18.425781 18.992188 C 18.601562 19.003906 18.632812 18.871094 18.820312 18.890625 C 18.820312 18.992188 18.820312 19.09375 18.820312 19.191406 Z M 16.933594 21.890625 C 16.945312 21.710938 16.8125 21.679688 16.835938 21.492188 C 17.011719 21.503906 17.046875 21.371094 17.234375 21.390625 C 17.355469 21.679688 17.285156 21.847656 16.933594 21.890625 Z M 31.433594 44.894531 C 30.898438 44.894531 31.148438 44.90625 31.234375 44.59375 C 30.777344 44.5 31.007812 45.097656 30.539062 44.996094 C 30.230469 44.839844 30.035156 44.570312 29.847656 44.296875 C 29.875 44.089844 30.113281 44.097656 30.144531 43.894531 C 29.769531 43.214844 28.800781 43.90625 28.554688 43.394531 C 28.785156 43.332031 29.199219 43.371094 29.449219 43.09375 C 29.394531 42.816406 29.125 42.8125 29.449219 42.59375 C 29.71875 43.113281 30.238281 42.765625 30.539062 43.195312 C 29.988281 43.304688 30.632812 44.171875 30.042969 44.09375 C 30.015625 44.355469 30.082031 44.527344 30.34375 44.496094 C 30.089844 44.042969 30.570312 44.222656 30.839844 44.296875 C 30.898438 44.117188 30.546875 43.878906 30.839844 43.796875 C 31.082031 43.882812 30.945312 44.355469 31.335938 44.296875 C 31.292969 43.8125 31.542969 44.195312 31.730469 43.894531 C 31.5625 43.269531 31.597656 42.765625 31.039062 42.394531 C 31.023438 41.476562 31.492188 40.871094 32.230469 40.996094 C 32.234375 41.132812 32.183594 41.214844 32.128906 41.292969 C 32.667969 41.269531 32.371094 41.25 32.921875 41.292969 C 32.753906 41.289062 32.667969 41.371094 32.625 41.496094 C 33.441406 41.511719 33.410156 41.765625 34.117188 41.894531 C 33.945312 41.554688 33.738281 41.472656 33.917969 40.996094 C 33.40625 40.777344 33.242188 40.210938 32.726562 39.996094 C 32.898438 39.757812 32.433594 39.554688 32.824219 39.292969 C 32.539062 39.316406 32.320312 39.269531 32.230469 39.09375 C 32.238281 38.839844 32.285156 38.617188 32.425781 38.496094 C 32.746094 38.386719 32.753906 39.085938 33.023438 38.695312 C 32.898438 38.453125 32.523438 38.464844 32.527344 38.09375 C 32.660156 37.828125 33.050781 37.820312 33.023438 37.394531 C 32.902344 37.382812 32.789062 37.363281 32.824219 37.195312 C 33.046875 34.734375 33.964844 33.308594 34.214844 30.695312 C 34.808594 30.640625 34.539062 30.140625 34.414062 29.792969 C 34.960938 29.835938 34.9375 29.023438 34.910156 28.492188 C 35.191406 28.507812 35.140625 28.191406 35.40625 28.191406 C 35.441406 27.726562 35.328125 27.40625 35.207031 27.09375 C 35.5625 27.351562 35.769531 26.773438 35.902344 26.492188 C 35.8125 26.386719 35.539062 26.460938 35.605469 26.191406 C 35.75 26.136719 36.117188 26.308594 36.101562 26.09375 C 35.738281 26.167969 35.960938 25.4375 36.300781 25.59375 C 36.332031 24.921875 36.191406 25.042969 36.101562 24.492188 C 36.3125 24.273438 36.394531 24.621094 36.699219 24.59375 C 36.828125 24.027344 36.304688 24.121094 36.300781 23.691406 C 36.488281 22.941406 37.023438 22.878906 36.898438 22.191406 C 37.121094 22.082031 37.394531 22.027344 37.59375 21.890625 C 37.652344 21.503906 37.675781 21.480469 37.492188 21.191406 C 37.898438 21.117188 37.660156 20.503906 38.285156 20.792969 C 38.136719 20.300781 37.957031 20.339844 37.988281 19.792969 C 38.4375 19.808594 38.253906 19.191406 38.683594 19.191406 C 38.484375 18.382812 39.113281 17.863281 39.082031 17.292969 C 39.464844 17.378906 39.242188 16.855469 39.675781 16.992188 C 39.519531 16.585938 40.027344 16.292969 40.175781 15.890625 C 40.023438 15.875 39.808594 15.925781 39.777344 15.789062 C 39.875 15.457031 40.175781 15.816406 40.371094 15.492188 C 39.878906 14.960938 40.976562 14.730469 40.273438 14.191406 C 40.570312 14.335938 40.609375 14.109375 40.867188 14.292969 C 40.828125 13.90625 40.875 13.976562 41.167969 13.589844 C 41.105469 13.386719 40.664062 13.5625 40.769531 13.191406 C 40.90625 12.828125 41.554688 12.5625 41.265625 12.089844 C 41.964844 11.933594 41.933594 10.980469 40.867188 11.191406 C 40.765625 10.246094 40.140625 10.972656 39.675781 10.789062 C 39.519531 11.390625 38.929688 11.835938 39.179688 12.289062 C 38.8125 12.003906 38.304688 11.523438 37.988281 11.492188 C 38.289062 11.367188 37.882812 11.148438 37.988281 10.890625 C 38.484375 10.902344 38.359375 10.515625 38.585938 10.191406 C 39.242188 10.578125 39.222656 9.566406 39.976562 9.890625 C 39.53125 9.257812 39.972656 8.859375 39.976562 7.890625 C 40.339844 7.710938 40.851562 7.421875 40.570312 6.890625 C 40.875 6.960938 40.863281 6.71875 41.167969 6.789062 C 41.0625 6.410156 41.566406 6.484375 41.265625 6.191406 C 40.871094 6.136719 41.375 6.542969 40.867188 6.488281 C 40.863281 6.351562 40.914062 6.269531 40.96875 6.191406 C 40.554688 6.304688 40.582031 5.980469 40.273438 5.988281 C 39.398438 6.273438 39.296875 7.03125 38.980469 7.691406 C 39.023438 7.882812 39.367188 7.769531 39.28125 8.089844 C 39.066406 8.441406 38.832031 8.773438 38.285156 8.789062 C 38.203125 9.503906 37.839844 9.941406 37.394531 10.289062 C 37.480469 10.535156 37.878906 10.46875 37.988281 10.691406 C 37.703125 10.921875 37.464844 10.902344 37.195312 10.691406 C 37.273438 11.035156 37.085938 11.113281 36.996094 11.289062 C 37.191406 11.359375 37.261719 11.558594 37.292969 11.789062 C 37.136719 12 36.882812 12.109375 36.796875 12.390625 C 36.394531 12.285156 35.941406 12.996094 35.507812 13.191406 C 35.636719 13.371094 35.554688 13.558594 35.605469 13.992188 C 35.375 14.160156 35.183594 14.363281 34.8125 14.390625 C 34.761719 14.71875 35.304688 14.601562 35.011719 14.890625 C 35.351562 15.058594 35.699219 15 35.902344 15.089844 C 35.417969 15.4375 34.832031 15.1875 34.511719 15.789062 C 34.628906 16.039062 35.140625 15.890625 35.207031 16.191406 C 35.042969 16.359375 34.625 16.269531 34.316406 16.292969 C 34.386719 16.621094 34.472656 16.929688 34.511719 17.292969 C 34.0625 17.234375 33.480469 17.816406 33.023438 17.691406 C 33.160156 18.34375 32.066406 18.496094 32.425781 19.390625 C 32.003906 19.632812 31.753906 20.046875 31.730469 20.691406 C 32.480469 21.0625 31.878906 21.75 31.335938 21.890625 C 31.640625 21.949219 31.855469 22.101562 32.128906 22.191406 C 31.757812 22.320312 31.273438 22.859375 30.839844 22.59375 C 30.957031 22.578125 31.121094 22.609375 31.136719 22.492188 C 30.398438 22.265625 30.832031 23.105469 31.039062 23.492188 C 30.824219 23.613281 30.480469 23.601562 30.34375 23.792969 C 30.335938 24.097656 30.550781 24.179688 30.640625 24.390625 C 30.449219 24.433594 30.460938 24.679688 30.144531 24.59375 C 30.039062 25.0625 30.371094 25.09375 30.539062 25.292969 C 29.914062 25.429688 29.859375 26.140625 29.347656 26.394531 C 29.464844 26.542969 29.636719 26.636719 29.648438 26.894531 C 29.070312 27.257812 28.949219 28.007812 29.050781 28.59375 C 28.371094 29.164062 28.082031 28.144531 27.460938 28.292969 C 27.488281 28.0625 27.726562 28.0625 27.859375 28.191406 C 27.839844 27.851562 27.53125 27.894531 27.859375 27.691406 C 26.871094 27.6875 26.917969 25.261719 26.371094 25.792969 C 26.222656 25.675781 25.964844 25.667969 25.871094 25.492188 C 26.105469 25.46875 25.929688 25.054688 25.871094 24.992188 C 26.097656 25.019531 26.246094 24.96875 26.269531 24.792969 C 25.902344 24.8125 25.796875 24.15625 25.476562 24.390625 C 25.507812 24.257812 25.617188 24.203125 25.574219 23.992188 C 24.582031 23.316406 24.191406 21.53125 23.191406 21.191406 C 23.199219 20.75 22.496094 20.160156 21.898438 19.992188 C 22.011719 19.972656 22.054688 19.882812 22.097656 19.792969 C 21.242188 19.289062 20.589844 18.578125 20.015625 17.792969 C 19.792969 17.835938 19.476562 18.019531 19.417969 17.691406 C 19.539062 17.679688 19.652344 17.660156 19.617188 17.492188 C 19.476562 17.464844 19.503906 17.273438 19.417969 17.191406 C 19.113281 17.1875 19.179688 17.550781 18.820312 17.492188 C 18.871094 17.238281 18.992188 17.101562 18.621094 17.089844 C 18.632812 17.816406 18.269531 17.09375 17.929688 17.589844 C 17.84375 18.234375 18.328125 18.226562 17.828125 18.292969 C 18.015625 18.457031 18.261719 18.625 17.929688 18.792969 C 18.046875 18.839844 18.152344 18.898438 18.226562 18.992188 C 18.132812 19.277344 17.894531 19.058594 17.828125 19.191406 C 18.175781 19.421875 17.519531 19.46875 17.53125 19.691406 C 17.800781 19.765625 17.730469 19.492188 17.929688 19.492188 C 17.898438 19.6875 18.0625 19.691406 18.125 19.792969 C 17.917969 20.347656 17.476562 20.671875 16.933594 20.890625 C 16.8125 21.53125 16.667969 21.789062 16.734375 22.191406 C 16.5 22.230469 16.792969 21.738281 16.4375 21.890625 C 16.417969 22.710938 16.382812 23.546875 16.734375 23.992188 C 16.265625 24.148438 16.964844 24.453125 16.539062 24.792969 C 17.511719 26.828125 18.921875 28.445312 19.515625 30.792969 C 19.960938 30.824219 20.378906 30.714844 20.707031 30.992188 C 20.648438 31.132812 20.328125 31.007812 20.3125 31.195312 C 20.625 31.246094 20.585938 31.648438 20.707031 31.894531 C 20.839844 31.894531 20.972656 31.894531 21.105469 31.894531 C 20.796875 32.9375 22.515625 34.007812 22.398438 35.394531 C 22.824219 35.625 22.976562 36.570312 22.894531 36.792969 C 23.117188 37.433594 23.847656 37.628906 24.183594 38.195312 C 24.304688 38.394531 24.15625 38.75 24.285156 38.996094 C 24.570312 39.550781 25.121094 39.941406 25.375 40.59375 C 25.746094 40.699219 25.535156 40.21875 25.871094 40.292969 C 25.980469 40.667969 25.625 40.578125 25.675781 40.894531 C 26.085938 40.957031 26.292969 40.746094 25.972656 40.59375 C 26.253906 40.472656 26.628906 40.511719 26.765625 40.796875 C 26.808594 41.035156 26.585938 41.011719 26.667969 41.292969 C 26.933594 41.527344 27.523438 41.433594 27.660156 41.796875 C 27.660156 41.925781 27.488281 41.886719 27.460938 41.996094 C 27.96875 41.898438 28.015625 42.640625 28.355469 42.394531 C 28.429688 42.019531 27.828125 42.328125 27.957031 41.894531 C 28.390625 41.925781 28.78125 42 29.050781 42.195312 C 28.835938 42.375 28.59375 42.535156 28.257812 42.59375 C 28.320312 42.960938 28.042969 42.980469 28.058594 43.296875 C 28.667969 43.523438 28.136719 43.703125 28.554688 43.996094 C 28.785156 43.988281 29.113281 43.570312 29.347656 43.894531 C 29.273438 43.917969 29.152344 43.898438 29.148438 43.996094 Z M 31.433594 44.894531 " fill-opacity="1" fill-rule="nonzero"/></g><path fill="#ffffff" d="M 42.65625 8.492188 C 42.746094 8.519531 43.089844 8.761719 42.855469 8.789062 C 42.332031 8.601562 42.03125 9.492188 41.5625 9.691406 C 41.679688 10.085938 41.527344 10.171875 41.761719 10.492188 C 41.308594 10.511719 41.492188 11.183594 41.761719 11.289062 C 41.785156 11.101562 41.925781 11.347656 41.960938 11.191406 C 42.070312 11.105469 41.996094 10.585938 42.359375 10.492188 C 42.367188 10.601562 42.214844 10.644531 42.359375 10.691406 C 42.386719 10.484375 42.730469 10.597656 42.757812 10.390625 C 42.644531 10.277344 42.242188 10.410156 42.457031 10.191406 C 42.519531 10.429688 42.613281 9.894531 42.953125 10.089844 C 42.84375 9.378906 43.175781 9.113281 43.351562 8.691406 C 43.121094 8.679688 42.84375 8.210938 42.65625 8.492188 " fill-opacity="1" fill-rule="nonzero"/><path fill="#ffffff" d="M 34.214844 38.59375 C 34.070312 39.109375 34.5625 39.503906 34.8125 39.292969 C 34.339844 39.332031 34.597656 38.644531 34.214844 38.59375 " fill-opacity="1" fill-rule="nonzero"/><g fill="#ff0000" fill-opacity="1"><g transform="translate(41.210516, 42.14533)"><g><path d="M 1.78125 0 C 1.695312 0 1.617188 -0.03125 1.546875 -0.09375 C 1.484375 -0.15625 1.453125 -0.234375 1.453125 -0.328125 L 1.453125 -18.609375 C 1.453125 -18.703125 1.484375 -18.78125 1.546875 -18.84375 C 1.617188 -18.90625 1.695312 -18.9375 1.78125 -18.9375 L 4.265625 -18.9375 C 4.359375 -18.9375 4.4375 -18.90625 4.5 -18.84375 C 4.5625 -18.78125 4.59375 -18.703125 4.59375 -18.609375 L 4.59375 -0.328125 C 4.59375 -0.234375 4.5625 -0.15625 4.5 -0.09375 C 4.4375 -0.03125 4.359375 0 4.265625 0 Z M 1.78125 0 "/></g></g></g><g fill="#ff0000" fill-opacity="1"><g transform="translate(50.082821, 42.14533)"><g><path d="M 4.984375 0 C 4.773438 0 4.65625 -0.0976562 4.625 -0.296875 L 0.75 -18.578125 L 0.734375 -18.6875 C 0.734375 -18.851562 0.832031 -18.9375 1.03125 -18.9375 L 3.765625 -18.9375 C 3.972656 -18.9375 4.085938 -18.835938 4.109375 -18.640625 L 6.359375 -5.625 C 6.378906 -5.570312 6.40625 -5.546875 6.4375 -5.546875 C 6.46875 -5.546875 6.492188 -5.570312 6.515625 -5.625 L 8.703125 -18.640625 C 8.722656 -18.835938 8.84375 -18.9375 9.0625 -18.9375 L 11.71875 -18.9375 C 11.945312 -18.9375 12.035156 -18.816406 11.984375 -18.578125 L 8.09375 -0.296875 C 8.050781 -0.0976562 7.929688 0 7.734375 0 Z M 4.984375 0 "/></g></g></g><g fill="#ff0000" fill-opacity="1"><g transform="translate(65.635693, 42.14533)"><g><path d="M 10.90625 -16.546875 C 10.90625 -16.460938 10.867188 -16.390625 10.796875 -16.328125 C 10.734375 -16.265625 10.660156 -16.234375 10.578125 -16.234375 L 4.734375 -16.234375 C 4.640625 -16.234375 4.59375 -16.1875 4.59375 -16.09375 L 4.59375 -10.984375 C 4.59375 -10.890625 4.640625 -10.84375 4.734375 -10.84375 L 8.1875 -10.84375 C 8.28125 -10.84375 8.359375 -10.8125 8.421875 -10.75 C 8.484375 -10.6875 8.515625 -10.609375 8.515625 -10.515625 L 8.515625 -8.4375 C 8.515625 -8.34375 8.484375 -8.265625 8.421875 -8.203125 C 8.359375 -8.140625 8.28125 -8.109375 8.1875 -8.109375 L 4.734375 -8.109375 C 4.640625 -8.109375 4.59375 -8.066406 4.59375 -7.984375 L 4.59375 -2.84375 C 4.59375 -2.75 4.640625 -2.703125 4.734375 -2.703125 L 10.578125 -2.703125 C 10.660156 -2.703125 10.734375 -2.671875 10.796875 -2.609375 C 10.867188 -2.546875 10.90625 -2.46875 10.90625 -2.375 L 10.90625 -0.328125 C 10.90625 -0.234375 10.867188 -0.15625 10.796875 -0.09375 C 10.734375 -0.03125 10.660156 0 10.578125 0 L 1.78125 0 C 1.695312 0 1.617188 -0.03125 1.546875 -0.09375 C 1.484375 -0.15625 1.453125 -0.234375 1.453125 -0.328125 L 1.453125 -18.609375 C 1.453125 -18.703125 1.484375 -18.78125 1.546875 -18.84375 C 1.617188 -18.90625 1.695312 -18.9375 1.78125 -18.9375 L 10.578125 -18.9375 C 10.660156 -18.9375 10.734375 -18.90625 10.796875 -18.84375 C 10.867188 -18.78125 10.90625 -18.703125 10.90625 -18.609375 Z M 10.90625 -16.546875 "/></g></g></g><g fill="#ff0000" fill-opacity="1"><g transform="translate(80.214878, 42.14533)"><g><path d="M 1.78125 0 C 1.695312 0 1.617188 -0.03125 1.546875 -0.09375 C 1.484375 -0.15625 1.453125 -0.234375 1.453125 -0.328125 L 1.453125 -18.609375 C 1.453125 -18.703125 1.484375 -18.78125 1.546875 -18.84375 C 1.617188 -18.90625 1.695312 -18.9375 1.78125 -18.9375 L 4.265625 -18.9375 C 4.359375 -18.9375 4.4375 -18.90625 4.5 -18.84375 C 4.5625 -18.78125 4.59375 -18.703125 4.59375 -18.609375 L 4.59375 -11.140625 C 4.59375 -11.066406 4.609375 -11.023438 4.640625 -11.015625 C 4.679688 -11.015625 4.722656 -11.039062 4.765625 -11.09375 L 8.8125 -18.6875 C 8.90625 -18.851562 9.039062 -18.9375 9.21875 -18.9375 L 11.90625 -18.9375 C 12.03125 -18.9375 12.109375 -18.898438 12.140625 -18.828125 C 12.179688 -18.753906 12.171875 -18.660156 12.109375 -18.546875 L 8.0625 -10.953125 C 8.039062 -10.878906 8.03125 -10.828125 8.03125 -10.796875 L 12.421875 -0.375 C 12.429688 -0.34375 12.4375 -0.289062 12.4375 -0.21875 C 12.4375 -0.0703125 12.347656 0 12.171875 0 L 9.5 0 C 9.300781 0 9.171875 -0.0820312 9.109375 -0.25 L 5.921875 -8.0625 C 5.898438 -8.113281 5.867188 -8.132812 5.828125 -8.125 C 5.796875 -8.113281 5.765625 -8.09375 5.734375 -8.0625 L 4.65625 -6.25 C 4.613281 -6.175781 4.59375 -6.117188 4.59375 -6.078125 L 4.59375 -0.328125 C 4.59375 -0.234375 4.5625 -0.15625 4.5 -0.09375 C 4.4375 -0.03125 4.359375 0 4.265625 0 Z M 1.78125 0 "/></g></g></g><g fill="#00ffff" fill-opacity="1"><g transform="translate(43.385409, 41.643216)"><g><path d="M 1.78125 0 C 1.695312 0 1.617188 -0.03125 1.546875 -0.09375 C 1.484375 -0.15625 1.453125 -0.234375 1.453125 -0.328125 L 1.453125 -18.609375 C 1.453125 -18.703125 1.484375 -18.78125 1.546875 -18.84375 C 1.617188 -18.90625 1.695312 -18.9375 1.78125 -18.9375 L 4.265625 -18.9375 C 4.359375 -18.9375 4.4375 -18.90625 4.5 -18.84375 C 4.5625 -18.78125 4.59375 -18.703125 4.59375 -18.609375 L 4.59375 -0.328125 C 4.59375 -0.234375 4.5625 -0.15625 4.5 -0.09375 C 4.4375 -0.03125 4.359375 0 4.265625 0 Z M 1.78125 0 "/></g></g></g><g fill="#00ffff" fill-opacity="1"><g transform="translate(52.257713, 41.643216)"><g><path d="M 4.984375 0 C 4.773438 0 4.65625 -0.0976562 4.625 -0.296875 L 0.75 -18.578125 L 0.734375 -18.6875 C 0.734375 -18.851562 0.832031 -18.9375 1.03125 -18.9375 L 3.765625 -18.9375 C 3.972656 -18.9375 4.085938 -18.835938 4.109375 -18.640625 L 6.359375 -5.625 C 6.378906 -5.570312 6.40625 -5.546875 6.4375 -5.546875 C 6.46875 -5.546875 6.492188 -5.570312 6.515625 -5.625 L 8.703125 -18.640625 C 8.722656 -18.835938 8.84375 -18.9375 9.0625 -18.9375 L 11.71875 -18.9375 C 11.945312 -18.9375 12.035156 -18.816406 11.984375 -18.578125 L 8.09375 -0.296875 C 8.050781 -0.0976562 7.929688 0 7.734375 0 Z M 4.984375 0 "/></g></g></g><g fill="#00ffff" fill-opacity="1"><g transform="translate(67.810586, 41.643216)"><g><path d="M 10.90625 -16.546875 C 10.90625 -16.460938 10.867188 -16.390625 10.796875 -16.328125 C 10.734375 -16.265625 10.660156 -16.234375 10.578125 -16.234375 L 4.734375 -16.234375 C 4.640625 -16.234375 4.59375 -16.1875 4.59375 -16.09375 L 4.59375 -10.984375 C 4.59375 -10.890625 4.640625 -10.84375 4.734375 -10.84375 L 8.1875 -10.84375 C 8.28125 -10.84375 8.359375 -10.8125 8.421875 -10.75 C 8.484375 -10.6875 8.515625 -10.609375 8.515625 -10.515625 L 8.515625 -8.4375 C 8.515625 -8.34375 8.484375 -8.265625 8.421875 -8.203125 C 8.359375 -8.140625 8.28125 -8.109375 8.1875 -8.109375 L 4.734375 -8.109375 C 4.640625 -8.109375 4.59375 -8.066406 4.59375 -7.984375 L 4.59375 -2.84375 C 4.59375 -2.75 4.640625 -2.703125 4.734375 -2.703125 L 10.578125 -2.703125 C 10.660156 -2.703125 10.734375 -2.671875 10.796875 -2.609375 C 10.867188 -2.546875 10.90625 -2.46875 10.90625 -2.375 L 10.90625 -0.328125 C 10.90625 -0.234375 10.867188 -0.15625 10.796875 -0.09375 C 10.734375 -0.03125 10.660156 0 10.578125 0 L 1.78125 0 C 1.695312 0 1.617188 -0.03125 1.546875 -0.09375 C 1.484375 -0.15625 1.453125 -0.234375 1.453125 -0.328125 L 1.453125 -18.609375 C 1.453125 -18.703125 1.484375 -18.78125 1.546875 -18.84375 C 1.617188 -18.90625 1.695312 -18.9375 1.78125 -18.9375 L 10.578125 -18.9375 C 10.660156 -18.9375 10.734375 -18.90625 10.796875 -18.84375 C 10.867188 -18.78125 10.90625 -18.703125 10.90625 -18.609375 Z M 10.90625 -16.546875 "/></g></g></g><g fill="#00ffff" fill-opacity="1"><g transform="translate(82.389771, 41.643216)"><g><path d="M 1.78125 0 C 1.695312 0 1.617188 -0.03125 1.546875 -0.09375 C 1.484375 -0.15625 1.453125 -0.234375 1.453125 -0.328125 L 1.453125 -18.609375 C 1.453125 -18.703125 1.484375 -18.78125 1.546875 -18.84375 C 1.617188 -18.90625 1.695312 -18.9375 1.78125 -18.9375 L 4.265625 -18.9375 C 4.359375 -18.9375 4.4375 -18.90625 4.5 -18.84375 C 4.5625 -18.78125 4.59375 -18.703125 4.59375 -18.609375 L 4.59375 -11.140625 C 4.59375 -11.066406 4.609375 -11.023438 4.640625 -11.015625 C 4.679688 -11.015625 4.722656 -11.039062 4.765625 -11.09375 L 8.8125 -18.6875 C 8.90625 -18.851562 9.039062 -18.9375 9.21875 -18.9375 L 11.90625 -18.9375 C 12.03125 -18.9375 12.109375 -18.898438 12.140625 -18.828125 C 12.179688 -18.753906 12.171875 -18.660156 12.109375 -18.546875 L 8.0625 -10.953125 C 8.039062 -10.878906 8.03125 -10.828125 8.03125 -10.796875 L 12.421875 -0.375 C 12.429688 -0.34375 12.4375 -0.289062 12.4375 -0.21875 C 12.4375 -0.0703125 12.347656 0 12.171875 0 L 9.5 0 C 9.300781 0 9.171875 -0.0820312 9.109375 -0.25 L 5.921875 -8.0625 C 5.898438 -8.113281 5.867188 -8.132812 5.828125 -8.125 C 5.796875 -8.113281 5.765625 -8.09375 5.734375 -8.0625 L 4.65625 -6.25 C 4.613281 -6.175781 4.59375 -6.117188 4.59375 -6.078125 L 4.59375 -0.328125 C 4.59375 -0.234375 4.5625 -0.15625 4.5 -0.09375 C 4.4375 -0.03125 4.359375 0 4.265625 0 Z M 1.78125 0 "/></g></g></g><g fill="#ffffff" fill-opacity="1"><g transform="translate(42.297961, 41.894273)"><g><path d="M 1.78125 0 C 1.695312 0 1.617188 -0.03125 1.546875 -0.09375 C 1.484375 -0.15625 1.453125 -0.234375 1.453125 -0.328125 L 1.453125 -18.609375 C 1.453125 -18.703125 1.484375 -18.78125 1.546875 -18.84375 C 1.617188 -18.90625 1.695312 -18.9375 1.78125 -18.9375 L 4.265625 -18.9375 C 4.359375 -18.9375 4.4375 -18.90625 4.5 -18.84375 C 4.5625 -18.78125 4.59375 -18.703125 4.59375 -18.609375 L 4.59375 -0.328125 C 4.59375 -0.234375 4.5625 -0.15625 4.5 -0.09375 C 4.4375 -0.03125 4.359375 0 4.265625 0 Z M 1.78125 0 "/></g></g></g><g fill="#ffffff" fill-opacity="1"><g transform="translate(51.170266, 41.894273)"><g><path d="M 4.984375 0 C 4.773438 0 4.65625 -0.0976562 4.625 -0.296875 L 0.75 -18.578125 L 0.734375 -18.6875 C 0.734375 -18.851562 0.832031 -18.9375 1.03125 -18.9375 L 3.765625 -18.9375 C 3.972656 -18.9375 4.085938 -18.835938 4.109375 -18.640625 L 6.359375 -5.625 C 6.378906 -5.570312 6.40625 -5.546875 6.4375 -5.546875 C 6.46875 -5.546875 6.492188 -5.570312 6.515625 -5.625 L 8.703125 -18.640625 C 8.722656 -18.835938 8.84375 -18.9375 9.0625 -18.9375 L 11.71875 -18.9375 C 11.945312 -18.9375 12.035156 -18.816406 11.984375 -18.578125 L 8.09375 -0.296875 C 8.050781 -0.0976562 7.929688 0 7.734375 0 Z M 4.984375 0 "/></g></g></g><g fill="#ffffff" fill-opacity="1"><g transform="translate(66.723138, 41.894273)"><g><path d="M 10.90625 -16.546875 C 10.90625 -16.460938 10.867188 -16.390625 10.796875 -16.328125 C 10.734375 -16.265625 10.660156 -16.234375 10.578125 -16.234375 L 4.734375 -16.234375 C 4.640625 -16.234375 4.59375 -16.1875 4.59375 -16.09375 L 4.59375 -10.984375 C 4.59375 -10.890625 4.640625 -10.84375 4.734375 -10.84375 L 8.1875 -10.84375 C 8.28125 -10.84375 8.359375 -10.8125 8.421875 -10.75 C 8.484375 -10.6875 8.515625 -10.609375 8.515625 -10.515625 L 8.515625 -8.4375 C 8.515625 -8.34375 8.484375 -8.265625 8.421875 -8.203125 C 8.359375 -8.140625 8.28125 -8.109375 8.1875 -8.109375 L 4.734375 -8.109375 C 4.640625 -8.109375 4.59375 -8.066406 4.59375 -7.984375 L 4.59375 -2.84375 C 4.59375 -2.75 4.640625 -2.703125 4.734375 -2.703125 L 10.578125 -2.703125 C 10.660156 -2.703125 10.734375 -2.671875 10.796875 -2.609375 C 10.867188 -2.546875 10.90625 -2.46875 10.90625 -2.375 L 10.90625 -0.328125 C 10.90625 -0.234375 10.867188 -0.15625 10.796875 -0.09375 C 10.734375 -0.03125 10.660156 0 10.578125 0 L 1.78125 0 C 1.695312 0 1.617188 -0.03125 1.546875 -0.09375 C 1.484375 -0.15625 1.453125 -0.234375 1.453125 -0.328125 L 1.453125 -18.609375 C 1.453125 -18.703125 1.484375 -18.78125 1.546875 -18.84375 C 1.617188 -18.90625 1.695312 -18.9375 1.78125 -18.9375 L 10.578125 -18.9375 C 10.660156 -18.9375 10.734375 -18.90625 10.796875 -18.84375 C 10.867188 -18.78125 10.90625 -18.703125 10.90625 -18.609375 Z M 10.90625 -16.546875 "/></g></g></g><g fill="#ffffff" fill-opacity="1"><g transform="translate(81.302324, 41.894273)"><g><path d="M 1.78125 0 C 1.695312 0 1.617188 -0.03125 1.546875 -0.09375 C 1.484375 -0.15625 1.453125 -0.234375 1.453125 -0.328125 L 1.453125 -18.609375 C 1.453125 -18.703125 1.484375 -18.78125 1.546875 -18.84375 C 1.617188 -18.90625 1.695312 -18.9375 1.78125 -18.9375 L 4.265625 -18.9375 C 4.359375 -18.9375 4.4375 -18.90625 4.5 -18.84375 C 4.5625 -18.78125 4.59375 -18.703125 4.59375 -18.609375 L 4.59375 -11.140625 C 4.59375 -11.066406 4.609375 -11.023438 4.640625 -11.015625 C 4.679688 -11.015625 4.722656 -11.039062 4.765625 -11.09375 L 8.8125 -18.6875 C 8.90625 -18.851562 9.039062 -18.9375 9.21875 -18.9375 L 11.90625 -18.9375 C 12.03125 -18.9375 12.109375 -18.898438 12.140625 -18.828125 C 12.179688 -18.753906 12.171875 -18.660156 12.109375 -18.546875 L 8.0625 -10.953125 C 8.039062 -10.878906 8.03125 -10.828125 8.03125 -10.796875 L 12.421875 -0.375 C 12.429688 -0.34375 12.4375 -0.289062 12.4375 -0.21875 C 12.4375 -0.0703125 12.347656 0 12.171875 0 L 9.5 0 C 9.300781 0 9.171875 -0.0820312 9.109375 -0.25 L 5.921875 -8.0625 C 5.898438 -8.113281 5.867188 -8.132812 5.828125 -8.125 C 5.796875 -8.113281 5.765625 -8.09375 5.734375 -8.0625 L 4.65625 -6.25 C 4.613281 -6.175781 4.59375 -6.117188 4.59375 -6.078125 L 4.59375 -0.328125 C 4.59375 -0.234375 4.5625 -0.15625 4.5 -0.09375 C 4.4375 -0.03125 4.359375 0 4.265625 0 Z M 1.78125 0 "/></g></g></g><g fill="#ff0000" fill-opacity="1"><g transform="translate(95.925356, 42.14533)"><g/></g></g><g fill="#00ffff" fill-opacity="1"><g transform="translate(98.100249, 41.643216)"><g/></g></g><g fill="#ffffff" fill-opacity="1"><g transform="translate(97.012801, 41.894273)"><g/></g></g></svg>