<svg xmlns="http://www.w3.org/2000/svg" xmlns:xlink="http://www.w3.org/1999/xlink" width="119" zoomAndPan="magnify" viewBox="0 0 89.25 37.5" height="50" preserveAspectRatio="xMidYMid meet" version="1.0"><defs><g/><clipPath id="17bb61788b"><path d="M 0.21875 0 L 88.292969 0 L 88.292969 37.007812 L 0.21875 37.007812 Z M 0.21875 0 " clip-rule="nonzero"/></clipPath><clipPath id="81122d3a6a"><path d="M 35 1.371094 L 35.886719 1.371094 L 35.886719 2.296875 L 35 2.296875 Z M 35 1.371094 " clip-rule="nonzero"/></clipPath><clipPath id="df7b3b0c57"><path d="M 32 2 L 35.890625 2 L 35.890625 5 L 32 5 Z M 32 2 " clip-rule="nonzero"/></clipPath><clipPath id="c6680f7d01"><path d="M 10.730469 4.683594 L 30.96875 4.683594 L 30.96875 36.261719 L 10.730469 36.261719 Z M 10.730469 4.683594 " clip-rule="nonzero"/></clipPath></defs><g clip-path="url(#17bb61788b)"><path fill="#ffffff" d="M 0.21875 0 L 89.03125 0 L 89.03125 44.40625 L 0.21875 44.40625 Z M 0.21875 0 " fill-opacity="1" fill-rule="nonzero"/><path fill="#ffffff" d="M 0.21875 0 L 88.292969 0 L 88.292969 37.007812 L 0.21875 37.007812 Z M 0.21875 0 " fill-opacity="1" fill-rule="nonzero"/><path fill="#ffffff" d="M 0.21875 0 L 88.292969 0 L 88.292969 37.007812 L 0.21875 37.007812 Z M 0.21875 0 " fill-opacity="1" fill-rule="nonzero"/></g><path fill="#000000" d="M 32.953125 0.0703125 C 32.566406 0 32.566406 0.324219 32.398438 0.476562 C 32.648438 0.40625 32.886719 0.324219 32.953125 0.0703125 " fill-opacity="1" fill-rule="nonzero"/><path fill="#000000" d="M 32.078125 1.199219 C 32.175781 1.210938 32.269531 1.226562 32.238281 1.363281 C 31.859375 1.042969 31.730469 1.480469 31.523438 1.765625 C 31.984375 1.804688 32.117188 1.503906 32.398438 1.363281 C 32.296875 1.242188 32.203125 0.84375 32.078125 1.199219 " fill-opacity="1" fill-rule="nonzero"/><path fill="#000000" d="M 32.398438 2.085938 C 32.375 2.277344 32.121094 2.238281 32.160156 2.492188 C 32.425781 2.59375 32.578125 2.175781 32.398438 2.085938 " fill-opacity="1" fill-rule="nonzero"/><path fill="#000000" d="M 31.445312 2.25 C 31.265625 2.226562 31.148438 2.269531 31.128906 2.410156 C 31.242188 2.429688 31.261719 2.542969 31.367188 2.570312 C 31.390625 2.460938 31.480469 2.417969 31.445312 2.25 " fill-opacity="1" fill-rule="nonzero"/><path fill="#000000" d="M 30.414062 4.34375 C 30.390625 4.453125 30.300781 4.5 30.335938 4.667969 C 30.597656 4.691406 30.730469 4.945312 30.890625 4.667969 C 30.6875 4.65625 30.582031 4.550781 30.574219 4.34375 C 30.675781 4.339844 30.683594 4.242188 30.8125 4.261719 C 30.8125 4.34375 30.746094 4.359375 30.730469 4.425781 C 30.941406 4.449219 30.992188 4.3125 30.96875 4.101562 C 30.875 3.902344 30.667969 4.265625 30.574219 4.023438 C 30.597656 3.832031 30.816406 3.839844 30.890625 3.699219 C 30.753906 3.597656 30.730469 3.378906 30.574219 3.296875 C 31.027344 3.277344 30.863281 3.464844 30.96875 3.699219 C 31.261719 3.726562 31.285156 3.484375 31.367188 3.296875 C 31.179688 3.191406 30.84375 3.238281 30.890625 2.894531 C 30.949219 2.730469 31.128906 2.5625 31.285156 2.730469 C 31.023438 2.230469 29.824219 3.710938 30.335938 4.023438 C 30.171875 4.070312 29.785156 3.890625 29.859375 4.183594 C 29.882812 4.285156 30.359375 4.070312 30.414062 4.34375 " fill-opacity="1" fill-rule="nonzero"/><path fill="#000000" d="M 31.605469 3.214844 C 31.691406 3.0625 31.910156 3.042969 32 2.894531 C 31.75 2.984375 31.808594 2.765625 31.683594 2.730469 C 31.742188 2.949219 31.308594 2.675781 31.367188 2.894531 C 31.679688 2.765625 31.394531 3.242188 31.605469 3.214844 " fill-opacity="1" fill-rule="nonzero"/><path fill="#000000" d="M 32.476562 6.199219 C 32.476562 6.152344 32.542969 6.105469 32.554688 6.199219 C 32.460938 6.214844 32.507812 6.289062 32.554688 6.359375 C 32.765625 6.382812 32.898438 6.328125 32.875 6.117188 C 32.78125 6.105469 32.648438 6.132812 32.636719 6.035156 C 32.800781 6.066406 33.21875 5.878906 33.03125 5.632812 C 32.878906 5.804688 32.191406 5.851562 32.476562 6.199219 " fill-opacity="1" fill-rule="nonzero"/><path fill="#000000" d="M 24.304688 31.265625 C 24.445312 31.113281 24.429688 30.800781 24.703125 30.78125 C 24.652344 30.484375 24.429688 30.359375 24.148438 30.296875 C 24.382812 30.605469 23.796875 31.152344 24.304688 31.265625 " fill-opacity="1" fill-rule="nonzero"/><path fill="#000000" d="M 21.605469 35.054688 C 21.671875 34.777344 21.535156 34.699219 21.371094 34.652344 C 21.242188 34.777344 21.40625 35.019531 21.605469 35.054688 " fill-opacity="1" fill-rule="nonzero"/><g clip-path="url(#81122d3a6a)"><path fill="#000000" d="M 35.886719 1.601562 C 35.734375 1.628906 35.730469 1.496094 35.648438 1.441406 C 35.417969 1.613281 35.347656 2.332031 35.015625 1.925781 C 35.03125 2.152344 35.152344 2.269531 35.414062 2.25 C 35.417969 2.121094 35.402344 1.96875 35.570312 2.007812 C 35.601562 2.144531 35.453125 2.214844 35.570312 2.25 C 35.589844 2.15625 35.660156 2.121094 35.730469 2.085938 C 35.789062 1.867188 35.570312 1.925781 35.570312 1.765625 C 35.75 1.789062 35.871094 1.746094 35.886719 1.601562 " fill-opacity="1" fill-rule="nonzero"/></g><g clip-path="url(#df7b3b0c57)"><path fill="#000000" d="M 34.9375 3.136719 C 34.9375 3.082031 34.9375 3.027344 34.9375 2.972656 C 34.789062 2.984375 34.886719 3.246094 34.777344 3.296875 C 34.546875 3.226562 34.824219 3.035156 34.777344 2.894531 C 34.941406 2.847656 35.257812 3.179688 34.9375 3.136719 Z M 34.300781 2.730469 C 34.179688 3.226562 33.910156 3.570312 33.507812 3.78125 C 33.496094 4.1875 33.777344 3.796875 33.824219 4.101562 C 33.578125 4.144531 33.5 3.914062 33.429688 4.183594 C 33.722656 4.589844 32.890625 4.546875 32.953125 4.988281 C 33.195312 4.921875 33.355469 4.980469 33.429688 4.910156 C 33.320312 4.460938 34.320312 4.621094 33.90625 4.023438 C 34.460938 4.085938 34.300781 3.527344 34.699219 3.78125 C 34.726562 3.488281 34.886719 3.324219 35.175781 3.296875 C 35.214844 2.960938 35.128906 2.75 35.015625 2.570312 C 34.636719 2.480469 34.679688 2.820312 34.300781 2.730469 " fill-opacity="1" fill-rule="nonzero"/></g><g clip-path="url(#c6680f7d01)"><path fill="#000000" d="M 29.542969 11.113281 C 29.449219 11.046875 29.328125 11.007812 29.144531 11.035156 C 29.210938 10.832031 29.25 10.601562 29.222656 10.308594 C 29.589844 10.339844 29.671875 10.8125 29.542969 11.113281 Z M 28.511719 10.226562 C 28.113281 10.335938 27.941406 10.671875 27.636719 10.871094 C 27.628906 11.019531 27.734375 11.042969 27.714844 11.195312 C 27.507812 11.289062 27.46875 11.265625 27.558594 11.519531 C 27.117188 11.542969 27.554688 11.144531 27.242188 11.113281 C 27.480469 11.089844 27.265625 10.601562 27.636719 10.710938 C 27.574219 10.328125 27.761719 10.191406 27.714844 9.824219 C 28.027344 9.847656 28.34375 9.617188 28.589844 9.824219 C 28.621094 10.019531 28.445312 10 28.511719 10.226562 Z M 27.796875 12 C 27.402344 11.992188 27.40625 12.082031 27.082031 12 C 27.320312 12.234375 26.6875 12.78125 26.527344 13.128906 C 26.316406 13.023438 26.285156 12.867188 26.367188 12.644531 C 26.46875 12.535156 26.742188 12.597656 26.84375 12.484375 C 26.777344 12.390625 26.738281 12.269531 26.765625 12.082031 C 27.058594 12.070312 26.964844 11.964844 26.921875 11.757812 C 27.566406 12 28.007812 10.8125 28.273438 11.679688 C 27.957031 11.625 27.785156 11.722656 27.796875 12 Z M 27.636719 12.40625 C 27.644531 12.253906 27.898438 12.347656 27.875 12.164062 C 27.984375 12.1875 27.941406 12.363281 27.953125 12.484375 C 27.789062 12.519531 27.746094 12.429688 27.636719 12.40625 Z M 25.652344 14.984375 C 25.292969 15.132812 25.515625 14.695312 25.335938 14.660156 C 25.484375 14.414062 25.714844 14.753906 25.652344 14.984375 Z M 21.527344 34.25 C 21.335938 34.175781 21.203125 34.039062 21.132812 33.84375 C 21.355469 33.910156 21.335938 33.730469 21.527344 33.765625 C 21.636719 33.867188 21.636719 34.144531 21.527344 34.25 Z M 20.339844 34.410156 C 20.402344 34.453125 20.46875 34.492188 20.578125 34.488281 C 20.652344 34.488281 20.636719 34.390625 20.65625 34.328125 C 20.871094 34.269531 20.597656 34.707031 20.8125 34.652344 C 20.75 34.789062 20.28125 34.660156 20.339844 34.410156 Z M 19.386719 22.882812 C 19.324219 22.839844 19.257812 22.800781 19.148438 22.800781 C 19.125 22.589844 19.3125 22.59375 19.464844 22.5625 C 19.5 22.730469 19.410156 22.773438 19.386719 22.882812 Z M 18.910156 22.640625 C 18.800781 22.539062 18.800781 22.261719 18.910156 22.15625 C 19.046875 22.261719 19.222656 22.324219 19.226562 22.5625 C 19.15625 22.625 19.046875 22.648438 18.910156 22.640625 Z M 12.644531 15.386719 C 12.5 15.367188 12.246094 15.46875 12.324219 15.226562 C 12.46875 15.234375 12.492188 15.128906 12.644531 15.144531 C 12.644531 15.226562 12.644531 15.304688 12.644531 15.386719 Z M 11.136719 17.5625 C 11.144531 17.417969 11.039062 17.394531 11.054688 17.242188 C 11.199219 17.25 11.222656 17.140625 11.375 17.160156 C 11.472656 17.394531 11.414062 17.527344 11.136719 17.5625 Z M 22.71875 36.101562 C 22.289062 36.101562 22.492188 36.109375 22.558594 35.859375 C 22.195312 35.785156 22.378906 36.265625 22.003906 36.183594 C 21.757812 36.058594 21.601562 35.839844 21.449219 35.617188 C 21.472656 35.453125 21.664062 35.460938 21.6875 35.296875 C 21.386719 34.746094 20.613281 35.304688 20.417969 34.894531 C 20.605469 34.839844 20.933594 34.875 21.132812 34.652344 C 21.089844 34.425781 20.875 34.421875 21.132812 34.25 C 21.347656 34.664062 21.761719 34.386719 22.003906 34.730469 C 21.5625 34.820312 22.078125 35.519531 21.605469 35.457031 C 21.585938 35.667969 21.636719 35.804688 21.847656 35.78125 C 21.644531 35.414062 22.027344 35.558594 22.242188 35.617188 C 22.289062 35.476562 22.011719 35.285156 22.242188 35.214844 C 22.4375 35.285156 22.328125 35.664062 22.640625 35.617188 C 22.605469 35.226562 22.808594 35.539062 22.957031 35.296875 C 22.820312 34.792969 22.847656 34.386719 22.402344 34.085938 C 22.390625 33.347656 22.765625 32.859375 23.351562 32.957031 C 23.355469 33.070312 23.316406 33.136719 23.273438 33.199219 C 23.703125 33.179688 23.46875 33.164062 23.90625 33.199219 C 23.773438 33.195312 23.703125 33.261719 23.671875 33.363281 C 24.324219 33.375 24.296875 33.578125 24.859375 33.683594 C 24.726562 33.410156 24.558594 33.34375 24.703125 32.957031 C 24.292969 32.78125 24.160156 32.324219 23.75 32.152344 C 23.890625 31.960938 23.515625 31.796875 23.828125 31.589844 C 23.601562 31.605469 23.425781 31.566406 23.351562 31.425781 C 23.359375 31.21875 23.398438 31.042969 23.511719 30.941406 C 23.765625 30.855469 23.773438 31.417969 23.988281 31.105469 C 23.886719 30.910156 23.585938 30.921875 23.589844 30.621094 C 23.699219 30.40625 24.007812 30.402344 23.988281 30.054688 C 23.890625 30.046875 23.800781 30.03125 23.828125 29.894531 C 24.007812 27.914062 24.738281 26.765625 24.941406 24.65625 C 25.414062 24.613281 25.199219 24.210938 25.097656 23.929688 C 25.535156 23.964844 25.515625 23.3125 25.496094 22.882812 C 25.71875 22.894531 25.679688 22.640625 25.890625 22.640625 C 25.917969 22.265625 25.828125 22.003906 25.734375 21.753906 C 26.015625 21.964844 26.183594 21.496094 26.289062 21.269531 C 26.214844 21.183594 25.996094 21.246094 26.050781 21.027344 C 26.167969 20.984375 26.460938 21.125 26.449219 20.949219 C 26.15625 21.007812 26.335938 20.421875 26.605469 20.546875 C 26.632812 20.003906 26.519531 20.101562 26.449219 19.660156 C 26.613281 19.480469 26.679688 19.761719 26.921875 19.738281 C 27.027344 19.285156 26.609375 19.359375 26.605469 19.015625 C 26.753906 18.410156 27.183594 18.359375 27.082031 17.804688 C 27.261719 17.71875 27.480469 17.671875 27.636719 17.5625 C 27.6875 17.25 27.703125 17.230469 27.558594 17 C 27.882812 16.941406 27.691406 16.445312 28.191406 16.675781 C 28.074219 16.28125 27.929688 16.3125 27.953125 15.871094 C 28.3125 15.886719 28.167969 15.386719 28.511719 15.386719 C 28.351562 14.734375 28.851562 14.316406 28.828125 13.855469 C 29.132812 13.925781 28.957031 13.503906 29.304688 13.613281 C 29.179688 13.285156 29.582031 13.050781 29.699219 12.726562 C 29.582031 12.714844 29.40625 12.757812 29.382812 12.644531 C 29.460938 12.378906 29.703125 12.667969 29.859375 12.40625 C 29.464844 11.976562 30.34375 11.792969 29.777344 11.355469 C 30.015625 11.472656 30.050781 11.289062 30.253906 11.4375 C 30.222656 11.125 30.261719 11.183594 30.492188 10.871094 C 30.445312 10.707031 30.09375 10.851562 30.175781 10.550781 C 30.285156 10.257812 30.804688 10.042969 30.574219 9.664062 C 31.128906 9.539062 31.105469 8.769531 30.253906 8.9375 C 30.171875 8.179688 29.675781 8.761719 29.304688 8.617188 C 29.179688 9.101562 28.707031 9.457031 28.90625 9.824219 C 28.613281 9.59375 28.207031 9.207031 27.953125 9.179688 C 28.195312 9.082031 27.867188 8.902344 27.953125 8.695312 C 28.351562 8.707031 28.25 8.394531 28.429688 8.132812 C 28.957031 8.445312 28.941406 7.628906 29.542969 7.890625 C 29.183594 7.382812 29.539062 7.058594 29.542969 6.277344 C 29.832031 6.132812 30.242188 5.902344 30.019531 5.472656 C 30.261719 5.53125 30.25 5.332031 30.492188 5.390625 C 30.410156 5.085938 30.8125 5.144531 30.574219 4.910156 C 30.257812 4.863281 30.660156 5.195312 30.253906 5.148438 C 30.25 5.039062 30.292969 4.972656 30.335938 4.910156 C 30.003906 5 30.023438 4.738281 29.777344 4.746094 C 29.078125 4.976562 29 5.585938 28.75 6.117188 C 28.78125 6.273438 29.054688 6.179688 28.984375 6.441406 C 28.8125 6.722656 28.628906 6.992188 28.191406 7.003906 C 28.125 7.582031 27.835938 7.929688 27.476562 8.214844 C 27.550781 8.410156 27.863281 8.359375 27.953125 8.535156 C 27.726562 8.722656 27.535156 8.703125 27.320312 8.535156 C 27.382812 8.8125 27.230469 8.875 27.160156 9.019531 C 27.316406 9.074219 27.371094 9.234375 27.398438 9.421875 C 27.273438 9.589844 27.070312 9.679688 27.003906 9.90625 C 26.679688 9.820312 26.320312 10.390625 25.972656 10.550781 C 26.074219 10.695312 26.007812 10.847656 26.050781 11.195312 C 25.867188 11.332031 25.710938 11.496094 25.414062 11.519531 C 25.375 11.78125 25.808594 11.6875 25.574219 11.921875 C 25.847656 12.054688 26.125 12.007812 26.289062 12.082031 C 25.898438 12.359375 25.429688 12.160156 25.175781 12.644531 C 25.273438 12.847656 25.679688 12.726562 25.734375 12.96875 C 25.601562 13.105469 25.265625 13.03125 25.019531 13.050781 C 25.074219 13.316406 25.148438 13.566406 25.175781 13.855469 C 24.820312 13.808594 24.351562 14.277344 23.988281 14.179688 C 24.097656 14.703125 23.222656 14.828125 23.511719 15.546875 C 23.171875 15.742188 22.972656 16.078125 22.957031 16.597656 C 23.554688 16.894531 23.074219 17.449219 22.640625 17.5625 C 22.882812 17.609375 23.054688 17.730469 23.273438 17.804688 C 22.976562 17.90625 22.589844 18.34375 22.242188 18.128906 C 22.335938 18.113281 22.46875 18.140625 22.480469 18.046875 C 21.890625 17.863281 22.238281 18.539062 22.402344 18.851562 C 22.230469 18.949219 21.957031 18.941406 21.847656 19.09375 C 21.84375 19.339844 22.011719 19.40625 22.082031 19.578125 C 21.933594 19.613281 21.941406 19.808594 21.6875 19.738281 C 21.605469 20.117188 21.871094 20.144531 22.003906 20.304688 C 21.503906 20.414062 21.460938 20.988281 21.050781 21.191406 C 21.144531 21.3125 21.28125 21.386719 21.289062 21.59375 C 20.828125 21.886719 20.730469 22.492188 20.8125 22.964844 C 20.269531 23.421875 20.039062 22.601562 19.546875 22.722656 C 19.566406 22.535156 19.757812 22.535156 19.863281 22.640625 C 19.84375 22.367188 19.601562 22.398438 19.863281 22.238281 C 19.074219 22.234375 19.109375 20.28125 18.671875 20.707031 C 18.554688 20.613281 18.347656 20.605469 18.277344 20.464844 C 18.460938 20.445312 18.320312 20.109375 18.277344 20.0625 C 18.457031 20.085938 18.574219 20.042969 18.59375 19.902344 C 18.300781 19.917969 18.214844 19.386719 17.957031 19.578125 C 17.984375 19.46875 18.070312 19.425781 18.039062 19.253906 C 17.242188 18.710938 16.933594 17.273438 16.132812 17 C 16.140625 16.644531 15.578125 16.167969 15.101562 16.03125 C 15.191406 16.015625 15.226562 15.941406 15.261719 15.871094 C 14.578125 15.464844 14.054688 14.894531 13.59375 14.257812 C 13.417969 14.292969 13.164062 14.445312 13.117188 14.179688 C 13.214844 14.167969 13.304688 14.152344 13.277344 14.015625 C 13.164062 13.996094 13.1875 13.839844 13.117188 13.773438 C 12.875 13.769531 12.929688 14.066406 12.644531 14.015625 C 12.683594 13.8125 12.777344 13.703125 12.484375 13.695312 C 12.492188 14.277344 12.199219 13.695312 11.929688 14.097656 C 11.859375 14.613281 12.246094 14.609375 11.847656 14.660156 C 12 14.796875 12.195312 14.929688 11.929688 15.066406 C 12.023438 15.101562 12.109375 15.152344 12.167969 15.226562 C 12.089844 15.457031 11.902344 15.277344 11.847656 15.386719 C 12.125 15.570312 11.601562 15.609375 11.613281 15.789062 C 11.828125 15.847656 11.769531 15.628906 11.929688 15.628906 C 11.90625 15.789062 12.035156 15.789062 12.085938 15.871094 C 11.921875 16.320312 11.566406 16.578125 11.136719 16.757812 C 11.039062 17.269531 10.921875 17.480469 10.976562 17.804688 C 10.785156 17.835938 11.019531 17.4375 10.738281 17.5625 C 10.722656 18.222656 10.695312 18.898438 10.976562 19.253906 C 10.601562 19.382812 11.160156 19.625 10.816406 19.902344 C 11.597656 21.539062 12.722656 22.84375 13.199219 24.738281 C 13.550781 24.761719 13.886719 24.671875 14.148438 24.898438 C 14.101562 25.007812 13.84375 24.910156 13.832031 25.058594 C 14.082031 25.101562 14.050781 25.425781 14.148438 25.625 C 14.257812 25.625 14.363281 25.625 14.46875 25.625 C 14.21875 26.464844 15.59375 27.324219 15.5 28.445312 C 15.839844 28.632812 15.964844 29.394531 15.894531 29.574219 C 16.074219 30.089844 16.65625 30.246094 16.925781 30.703125 C 17.019531 30.863281 16.90625 31.152344 17.007812 31.347656 C 17.234375 31.796875 17.675781 32.109375 17.878906 32.636719 C 18.175781 32.722656 18.003906 32.332031 18.277344 32.394531 C 18.359375 32.695312 18.078125 32.625 18.117188 32.878906 C 18.445312 32.925781 18.609375 32.757812 18.355469 32.636719 C 18.578125 32.535156 18.878906 32.570312 18.988281 32.796875 C 19.023438 32.992188 18.84375 32.972656 18.910156 33.199219 C 19.121094 33.390625 19.59375 33.3125 19.703125 33.601562 C 19.703125 33.710938 19.566406 33.675781 19.546875 33.765625 C 19.949219 33.683594 19.988281 34.285156 20.257812 34.085938 C 20.320312 33.785156 19.835938 34.03125 19.941406 33.683594 C 20.289062 33.707031 20.601562 33.765625 20.8125 33.925781 C 20.640625 34.070312 20.449219 34.199219 20.179688 34.25 C 20.230469 34.542969 20.007812 34.558594 20.019531 34.8125 C 20.507812 34.996094 20.082031 35.140625 20.417969 35.375 C 20.601562 35.371094 20.863281 35.035156 21.050781 35.296875 C 20.992188 35.3125 20.894531 35.296875 20.894531 35.375 Z M 22.71875 36.101562 " fill-opacity="1" fill-rule="nonzero"/></g><path fill="#000000" d="M 31.683594 6.761719 C 31.753906 6.785156 32.03125 6.980469 31.84375 7.003906 C 31.425781 6.851562 31.183594 7.570312 30.8125 7.730469 C 30.902344 8.046875 30.78125 8.117188 30.96875 8.375 C 30.605469 8.390625 30.753906 8.933594 30.96875 9.019531 C 30.988281 8.867188 31.101562 9.066406 31.128906 8.9375 C 31.214844 8.871094 31.15625 8.449219 31.445312 8.375 C 31.453125 8.464844 31.332031 8.5 31.445312 8.535156 C 31.46875 8.371094 31.742188 8.460938 31.761719 8.292969 C 31.675781 8.203125 31.351562 8.3125 31.523438 8.132812 C 31.574219 8.328125 31.648438 7.890625 31.921875 8.050781 C 31.832031 7.476562 32.097656 7.261719 32.238281 6.921875 C 32.054688 6.914062 31.832031 6.539062 31.683594 6.761719 " fill-opacity="1" fill-rule="nonzero"/><path fill="#000000" d="M 24.941406 31.023438 C 24.824219 31.441406 25.21875 31.757812 25.414062 31.589844 C 25.039062 31.621094 25.242188 31.0625 24.941406 31.023438 " fill-opacity="1" fill-rule="nonzero"/><g fill="#ff0000" fill-opacity="1"><g transform="translate(30.933294, 33.039724)"><g><path d="M 1.40625 0 C 1.332031 0 1.269531 -0.0234375 1.21875 -0.078125 C 1.175781 -0.128906 1.15625 -0.1875 1.15625 -0.25 L 1.15625 -14.671875 C 1.15625 -14.742188 1.175781 -14.804688 1.21875 -14.859375 C 1.269531 -14.910156 1.332031 -14.9375 1.40625 -14.9375 L 3.375 -14.9375 C 3.4375 -14.9375 3.492188 -14.910156 3.546875 -14.859375 C 3.597656 -14.804688 3.625 -14.742188 3.625 -14.671875 L 3.625 -0.25 C 3.625 -0.1875 3.597656 -0.128906 3.546875 -0.078125 C 3.492188 -0.0234375 3.4375 0 3.375 0 Z M 1.40625 0 "/></g></g></g><g fill="#ff0000" fill-opacity="1"><g transform="translate(37.927652, 33.039724)"><g><path d="M 3.921875 0 C 3.765625 0 3.671875 -0.078125 3.640625 -0.234375 L 0.59375 -14.65625 L 0.578125 -14.734375 C 0.578125 -14.867188 0.65625 -14.9375 0.8125 -14.9375 L 2.96875 -14.9375 C 3.132812 -14.9375 3.222656 -14.851562 3.234375 -14.6875 L 5.015625 -4.4375 C 5.023438 -4.394531 5.046875 -4.375 5.078125 -4.375 C 5.109375 -4.375 5.128906 -4.394531 5.140625 -4.4375 L 6.875 -14.6875 C 6.882812 -14.851562 6.972656 -14.9375 7.140625 -14.9375 L 9.234375 -14.9375 C 9.421875 -14.9375 9.492188 -14.84375 9.453125 -14.65625 L 6.375 -0.234375 C 6.34375 -0.078125 6.25 0 6.09375 0 Z M 3.921875 0 "/></g></g></g><g fill="#ff0000" fill-opacity="1"><g transform="translate(50.188478, 33.039724)"><g><path d="M 8.59375 -13.046875 C 8.59375 -12.984375 8.566406 -12.925781 8.515625 -12.875 C 8.472656 -12.820312 8.414062 -12.796875 8.34375 -12.796875 L 3.734375 -12.796875 C 3.660156 -12.796875 3.625 -12.757812 3.625 -12.6875 L 3.625 -8.65625 C 3.625 -8.582031 3.660156 -8.546875 3.734375 -8.546875 L 6.46875 -8.546875 C 6.53125 -8.546875 6.585938 -8.519531 6.640625 -8.46875 C 6.691406 -8.425781 6.71875 -8.367188 6.71875 -8.296875 L 6.71875 -6.65625 C 6.71875 -6.582031 6.691406 -6.519531 6.640625 -6.46875 C 6.585938 -6.425781 6.53125 -6.40625 6.46875 -6.40625 L 3.734375 -6.40625 C 3.660156 -6.40625 3.625 -6.367188 3.625 -6.296875 L 3.625 -2.234375 C 3.625 -2.171875 3.660156 -2.140625 3.734375 -2.140625 L 8.34375 -2.140625 C 8.414062 -2.140625 8.472656 -2.113281 8.515625 -2.0625 C 8.566406 -2.007812 8.59375 -1.945312 8.59375 -1.875 L 8.59375 -0.25 C 8.59375 -0.1875 8.566406 -0.128906 8.515625 -0.078125 C 8.472656 -0.0234375 8.414062 0 8.34375 0 L 1.40625 0 C 1.332031 0 1.269531 -0.0234375 1.21875 -0.078125 C 1.175781 -0.128906 1.15625 -0.1875 1.15625 -0.25 L 1.15625 -14.671875 C 1.15625 -14.742188 1.175781 -14.804688 1.21875 -14.859375 C 1.269531 -14.910156 1.332031 -14.9375 1.40625 -14.9375 L 8.34375 -14.9375 C 8.414062 -14.9375 8.472656 -14.910156 8.515625 -14.859375 C 8.566406 -14.804688 8.59375 -14.742188 8.59375 -14.671875 Z M 8.59375 -13.046875 "/></g></g></g><g fill="#ff0000" fill-opacity="1"><g transform="translate(61.681725, 33.039724)"><g><path d="M 1.40625 0 C 1.332031 0 1.269531 -0.0234375 1.21875 -0.078125 C 1.175781 -0.128906 1.15625 -0.1875 1.15625 -0.25 L 1.15625 -14.671875 C 1.15625 -14.742188 1.175781 -14.804688 1.21875 -14.859375 C 1.269531 -14.910156 1.332031 -14.9375 1.40625 -14.9375 L 3.375 -14.9375 C 3.4375 -14.9375 3.492188 -14.910156 3.546875 -14.859375 C 3.597656 -14.804688 3.625 -14.742188 3.625 -14.671875 L 3.625 -8.78125 C 3.625 -8.726562 3.640625 -8.695312 3.671875 -8.6875 C 3.703125 -8.6875 3.726562 -8.707031 3.75 -8.75 L 6.953125 -14.734375 C 7.023438 -14.867188 7.128906 -14.9375 7.265625 -14.9375 L 9.390625 -14.9375 C 9.484375 -14.9375 9.546875 -14.90625 9.578125 -14.84375 C 9.609375 -14.789062 9.601562 -14.71875 9.5625 -14.625 L 6.359375 -8.640625 C 6.335938 -8.578125 6.328125 -8.535156 6.328125 -8.515625 L 9.796875 -0.296875 C 9.804688 -0.265625 9.8125 -0.222656 9.8125 -0.171875 C 9.8125 -0.0546875 9.738281 0 9.59375 0 L 7.484375 0 C 7.328125 0 7.226562 -0.0625 7.1875 -0.1875 L 4.671875 -6.359375 C 4.660156 -6.398438 4.640625 -6.414062 4.609375 -6.40625 C 4.578125 -6.40625 4.546875 -6.390625 4.515625 -6.359375 L 3.671875 -4.921875 C 3.640625 -4.867188 3.625 -4.828125 3.625 -4.796875 L 3.625 -0.25 C 3.625 -0.1875 3.597656 -0.128906 3.546875 -0.078125 C 3.492188 -0.0234375 3.4375 0 3.375 0 Z M 1.40625 0 "/></g></g></g><g fill="#00ffff" fill-opacity="1"><g transform="translate(32.647891, 32.643877)"><g><path d="M 1.40625 0 C 1.332031 0 1.269531 -0.0234375 1.21875 -0.078125 C 1.175781 -0.128906 1.15625 -0.1875 1.15625 -0.25 L 1.15625 -14.671875 C 1.15625 -14.742188 1.175781 -14.804688 1.21875 -14.859375 C 1.269531 -14.910156 1.332031 -14.9375 1.40625 -14.9375 L 3.375 -14.9375 C 3.4375 -14.9375 3.492188 -14.910156 3.546875 -14.859375 C 3.597656 -14.804688 3.625 -14.742188 3.625 -14.671875 L 3.625 -0.25 C 3.625 -0.1875 3.597656 -0.128906 3.546875 -0.078125 C 3.492188 -0.0234375 3.4375 0 3.375 0 Z M 1.40625 0 "/></g></g></g><g fill="#00ffff" fill-opacity="1"><g transform="translate(39.642249, 32.643877)"><g><path d="M 3.921875 0 C 3.765625 0 3.671875 -0.078125 3.640625 -0.234375 L 0.59375 -14.65625 L 0.578125 -14.734375 C 0.578125 -14.867188 0.65625 -14.9375 0.8125 -14.9375 L 2.96875 -14.9375 C 3.132812 -14.9375 3.222656 -14.851562 3.234375 -14.6875 L 5.015625 -4.4375 C 5.023438 -4.394531 5.046875 -4.375 5.078125 -4.375 C 5.109375 -4.375 5.128906 -4.394531 5.140625 -4.4375 L 6.875 -14.6875 C 6.882812 -14.851562 6.972656 -14.9375 7.140625 -14.9375 L 9.234375 -14.9375 C 9.421875 -14.9375 9.492188 -14.84375 9.453125 -14.65625 L 6.375 -0.234375 C 6.34375 -0.078125 6.25 0 6.09375 0 Z M 3.921875 0 "/></g></g></g><g fill="#00ffff" fill-opacity="1"><g transform="translate(51.903075, 32.643877)"><g><path d="M 8.59375 -13.046875 C 8.59375 -12.984375 8.566406 -12.925781 8.515625 -12.875 C 8.472656 -12.820312 8.414062 -12.796875 8.34375 -12.796875 L 3.734375 -12.796875 C 3.660156 -12.796875 3.625 -12.757812 3.625 -12.6875 L 3.625 -8.65625 C 3.625 -8.582031 3.660156 -8.546875 3.734375 -8.546875 L 6.46875 -8.546875 C 6.53125 -8.546875 6.585938 -8.519531 6.640625 -8.46875 C 6.691406 -8.425781 6.71875 -8.367188 6.71875 -8.296875 L 6.71875 -6.65625 C 6.71875 -6.582031 6.691406 -6.519531 6.640625 -6.46875 C 6.585938 -6.425781 6.53125 -6.40625 6.46875 -6.40625 L 3.734375 -6.40625 C 3.660156 -6.40625 3.625 -6.367188 3.625 -6.296875 L 3.625 -2.234375 C 3.625 -2.171875 3.660156 -2.140625 3.734375 -2.140625 L 8.34375 -2.140625 C 8.414062 -2.140625 8.472656 -2.113281 8.515625 -2.0625 C 8.566406 -2.007812 8.59375 -1.945312 8.59375 -1.875 L 8.59375 -0.25 C 8.59375 -0.1875 8.566406 -0.128906 8.515625 -0.078125 C 8.472656 -0.0234375 8.414062 0 8.34375 0 L 1.40625 0 C 1.332031 0 1.269531 -0.0234375 1.21875 -0.078125 C 1.175781 -0.128906 1.15625 -0.1875 1.15625 -0.25 L 1.15625 -14.671875 C 1.15625 -14.742188 1.175781 -14.804688 1.21875 -14.859375 C 1.269531 -14.910156 1.332031 -14.9375 1.40625 -14.9375 L 8.34375 -14.9375 C 8.414062 -14.9375 8.472656 -14.910156 8.515625 -14.859375 C 8.566406 -14.804688 8.59375 -14.742188 8.59375 -14.671875 Z M 8.59375 -13.046875 "/></g></g></g><g fill="#00ffff" fill-opacity="1"><g transform="translate(63.396323, 32.643877)"><g><path d="M 1.40625 0 C 1.332031 0 1.269531 -0.0234375 1.21875 -0.078125 C 1.175781 -0.128906 1.15625 -0.1875 1.15625 -0.25 L 1.15625 -14.671875 C 1.15625 -14.742188 1.175781 -14.804688 1.21875 -14.859375 C 1.269531 -14.910156 1.332031 -14.9375 1.40625 -14.9375 L 3.375 -14.9375 C 3.4375 -14.9375 3.492188 -14.910156 3.546875 -14.859375 C 3.597656 -14.804688 3.625 -14.742188 3.625 -14.671875 L 3.625 -8.78125 C 3.625 -8.726562 3.640625 -8.695312 3.671875 -8.6875 C 3.703125 -8.6875 3.726562 -8.707031 3.75 -8.75 L 6.953125 -14.734375 C 7.023438 -14.867188 7.128906 -14.9375 7.265625 -14.9375 L 9.390625 -14.9375 C 9.484375 -14.9375 9.546875 -14.90625 9.578125 -14.84375 C 9.609375 -14.789062 9.601562 -14.71875 9.5625 -14.625 L 6.359375 -8.640625 C 6.335938 -8.578125 6.328125 -8.535156 6.328125 -8.515625 L 9.796875 -0.296875 C 9.804688 -0.265625 9.8125 -0.222656 9.8125 -0.171875 C 9.8125 -0.0546875 9.738281 0 9.59375 0 L 7.484375 0 C 7.328125 0 7.226562 -0.0625 7.1875 -0.1875 L 4.671875 -6.359375 C 4.660156 -6.398438 4.640625 -6.414062 4.609375 -6.40625 C 4.578125 -6.40625 4.546875 -6.390625 4.515625 -6.359375 L 3.671875 -4.921875 C 3.640625 -4.867188 3.625 -4.828125 3.625 -4.796875 L 3.625 -0.25 C 3.625 -0.1875 3.597656 -0.128906 3.546875 -0.078125 C 3.492188 -0.0234375 3.4375 0 3.375 0 Z M 1.40625 0 "/></g></g></g><g fill="#191919" fill-opacity="1"><g transform="translate(31.790593, 32.8418)"><g><path d="M 1.40625 0 C 1.332031 0 1.269531 -0.0234375 1.21875 -0.078125 C 1.175781 -0.128906 1.15625 -0.1875 1.15625 -0.25 L 1.15625 -14.671875 C 1.15625 -14.742188 1.175781 -14.804688 1.21875 -14.859375 C 1.269531 -14.910156 1.332031 -14.9375 1.40625 -14.9375 L 3.375 -14.9375 C 3.4375 -14.9375 3.492188 -14.910156 3.546875 -14.859375 C 3.597656 -14.804688 3.625 -14.742188 3.625 -14.671875 L 3.625 -0.25 C 3.625 -0.1875 3.597656 -0.128906 3.546875 -0.078125 C 3.492188 -0.0234375 3.4375 0 3.375 0 Z M 1.40625 0 "/></g></g></g><g fill="#191919" fill-opacity="1"><g transform="translate(38.784951, 32.8418)"><g><path d="M 3.921875 0 C 3.765625 0 3.671875 -0.078125 3.640625 -0.234375 L 0.59375 -14.65625 L 0.578125 -14.734375 C 0.578125 -14.867188 0.65625 -14.9375 0.8125 -14.9375 L 2.96875 -14.9375 C 3.132812 -14.9375 3.222656 -14.851562 3.234375 -14.6875 L 5.015625 -4.4375 C 5.023438 -4.394531 5.046875 -4.375 5.078125 -4.375 C 5.109375 -4.375 5.128906 -4.394531 5.140625 -4.4375 L 6.875 -14.6875 C 6.882812 -14.851562 6.972656 -14.9375 7.140625 -14.9375 L 9.234375 -14.9375 C 9.421875 -14.9375 9.492188 -14.84375 9.453125 -14.65625 L 6.375 -0.234375 C 6.34375 -0.078125 6.25 0 6.09375 0 Z M 3.921875 0 "/></g></g></g><g fill="#191919" fill-opacity="1"><g transform="translate(51.045776, 32.8418)"><g><path d="M 8.59375 -13.046875 C 8.59375 -12.984375 8.566406 -12.925781 8.515625 -12.875 C 8.472656 -12.820312 8.414062 -12.796875 8.34375 -12.796875 L 3.734375 -12.796875 C 3.660156 -12.796875 3.625 -12.757812 3.625 -12.6875 L 3.625 -8.65625 C 3.625 -8.582031 3.660156 -8.546875 3.734375 -8.546875 L 6.46875 -8.546875 C 6.53125 -8.546875 6.585938 -8.519531 6.640625 -8.46875 C 6.691406 -8.425781 6.71875 -8.367188 6.71875 -8.296875 L 6.71875 -6.65625 C 6.71875 -6.582031 6.691406 -6.519531 6.640625 -6.46875 C 6.585938 -6.425781 6.53125 -6.40625 6.46875 -6.40625 L 3.734375 -6.40625 C 3.660156 -6.40625 3.625 -6.367188 3.625 -6.296875 L 3.625 -2.234375 C 3.625 -2.171875 3.660156 -2.140625 3.734375 -2.140625 L 8.34375 -2.140625 C 8.414062 -2.140625 8.472656 -2.113281 8.515625 -2.0625 C 8.566406 -2.007812 8.59375 -1.945312 8.59375 -1.875 L 8.59375 -0.25 C 8.59375 -0.1875 8.566406 -0.128906 8.515625 -0.078125 C 8.472656 -0.0234375 8.414062 0 8.34375 0 L 1.40625 0 C 1.332031 0 1.269531 -0.0234375 1.21875 -0.078125 C 1.175781 -0.128906 1.15625 -0.1875 1.15625 -0.25 L 1.15625 -14.671875 C 1.15625 -14.742188 1.175781 -14.804688 1.21875 -14.859375 C 1.269531 -14.910156 1.332031 -14.9375 1.40625 -14.9375 L 8.34375 -14.9375 C 8.414062 -14.9375 8.472656 -14.910156 8.515625 -14.859375 C 8.566406 -14.804688 8.59375 -14.742188 8.59375 -14.671875 Z M 8.59375 -13.046875 "/></g></g></g><g fill="#191919" fill-opacity="1"><g transform="translate(62.539024, 32.8418)"><g><path d="M 1.40625 0 C 1.332031 0 1.269531 -0.0234375 1.21875 -0.078125 C 1.175781 -0.128906 1.15625 -0.1875 1.15625 -0.25 L 1.15625 -14.671875 C 1.15625 -14.742188 1.175781 -14.804688 1.21875 -14.859375 C 1.269531 -14.910156 1.332031 -14.9375 1.40625 -14.9375 L 3.375 -14.9375 C 3.4375 -14.9375 3.492188 -14.910156 3.546875 -14.859375 C 3.597656 -14.804688 3.625 -14.742188 3.625 -14.671875 L 3.625 -8.78125 C 3.625 -8.726562 3.640625 -8.695312 3.671875 -8.6875 C 3.703125 -8.6875 3.726562 -8.707031 3.75 -8.75 L 6.953125 -14.734375 C 7.023438 -14.867188 7.128906 -14.9375 7.265625 -14.9375 L 9.390625 -14.9375 C 9.484375 -14.9375 9.546875 -14.90625 9.578125 -14.84375 C 9.609375 -14.789062 9.601562 -14.71875 9.5625 -14.625 L 6.359375 -8.640625 C 6.335938 -8.578125 6.328125 -8.535156 6.328125 -8.515625 L 9.796875 -0.296875 C 9.804688 -0.265625 9.8125 -0.222656 9.8125 -0.171875 C 9.8125 -0.0546875 9.738281 0 9.59375 0 L 7.484375 0 C 7.328125 0 7.226562 -0.0625 7.1875 -0.1875 L 4.671875 -6.359375 C 4.660156 -6.398438 4.640625 -6.414062 4.609375 -6.40625 C 4.578125 -6.40625 4.546875 -6.390625 4.515625 -6.359375 L 3.671875 -4.921875 C 3.640625 -4.867188 3.625 -4.828125 3.625 -4.796875 L 3.625 -0.25 C 3.625 -0.1875 3.597656 -0.128906 3.546875 -0.078125 C 3.492188 -0.0234375 3.4375 0 3.375 0 Z M 1.40625 0 "/></g></g></g></svg>